<?xml version="1.0" encoding="UTF-8"?>
<svg version="1.1" xmlns="http://www.w3.org/2000/svg" width="855" height="371">
<path d="M0 0 C282.15 0 564.3 0 855 0 C855 122.43 855 244.86 855 371 C572.85 371 290.7 371 0 371 C0 248.57 0 126.14 0 0 Z " fill="#FEFEFE" transform="translate(0,0)"/>
<path d="M0 0 C1.69872253 -0.00856522 1.69872253 -0.00856522 3.4317627 -0.01730347 C4.67022949 -0.01842133 5.90869629 -0.01953918 7.18469238 -0.02069092 C8.49248657 -0.02565582 9.80028076 -0.03062073 11.14770508 -0.03573608 C14.7349359 -0.04884217 18.32214801 -0.05530236 21.90939903 -0.05974674 C24.15481694 -0.06268235 26.40022979 -0.06678823 28.64564514 -0.07125092 C35.68293213 -0.08492551 42.7202075 -0.0945905 49.75750685 -0.09845281 C57.85781299 -0.10292373 65.95794956 -0.12042669 74.05820417 -0.1494534 C80.3327339 -0.17114985 86.60721621 -0.18116143 92.88178301 -0.18249393 C96.62242185 -0.18353693 100.36290131 -0.18933529 104.10350037 -0.20731354 C107.62972753 -0.22393097 111.1556779 -0.22588441 114.68193054 -0.21717453 C116.57374098 -0.21605076 118.46554279 -0.22966494 120.3572998 -0.243927 C136.51139711 -0.16603826 149.36425939 4.57116868 161.14758301 15.71856689 C171.63796031 26.8176009 176.75862326 39.56135986 176.70407104 54.73323059 C176.70860216 55.66869955 176.71313327 56.6041685 176.71780169 57.567985 C176.73041022 60.68667067 176.72882759 63.8051809 176.72717285 66.92388916 C176.73316045 69.16671471 176.73996652 71.40953821 176.74752808 73.65235901 C176.76517505 79.73535412 176.76988301 85.81829293 176.77115965 91.90131116 C176.77258293 95.70662789 176.77685596 99.51193039 176.78215408 103.31724358 C176.79969841 115.92163567 176.80899486 128.52598679 176.80749314 141.13038779 C176.80741322 141.8089327 176.80733331 142.4874776 176.80725098 143.18658447 C176.80716922 143.8659672 176.80708745 144.54534993 176.80700321 145.24532001 C176.80619136 156.24076497 176.82530608 167.23607259 176.85352771 178.23147786 C176.88233853 189.54663188 176.89569817 200.86169831 176.89434016 212.17689747 C176.89383173 218.51931117 176.89944883 224.86156951 176.92069626 231.20395088 C176.9401547 237.1753449 176.9401511 243.14643662 176.92566299 249.11784172 C176.92358299 251.29979268 176.92822708 253.48176294 176.94038391 255.66368103 C177.0433694 275.44127053 174.87063201 292.07352318 160.99914551 307.39044189 C148.54327889 319.19875581 133.66617738 322.44323043 117.0291748 322.43096924 C115.05175797 322.44104507 115.05175797 322.44104507 113.03439331 322.45132446 C109.44124104 322.46888188 105.84818423 322.47367545 102.2549932 322.47495604 C100.00367811 322.47638395 97.7523868 322.48066558 95.50107765 322.48595047 C87.6287547 322.5044163 79.75649917 322.51262535 71.88415527 322.51104736 C64.57514773 322.50984666 57.26643581 322.53094369 49.95750302 322.56253469 C43.65738449 322.58878363 37.35736201 322.59941108 31.05718929 322.59813654 C27.30540689 322.59762947 23.55388761 322.6031705 19.80216026 322.62449265 C16.27004151 322.64402156 12.73843298 322.64390117 9.20629501 322.62945938 C7.31214134 322.62641026 5.41798678 322.64294428 3.52391052 322.66033936 C-11.15531974 322.55383471 -23.87324802 317.09523147 -34.68444824 307.17950439 C-45.614344 295.31795432 -49.88868311 280.20372337 -49.83078003 264.41430664 C-49.8375767 263.02585757 -49.8375767 263.02585757 -49.84451067 261.60935903 C-49.85707837 258.53600905 -49.85553927 255.46283801 -49.85388184 252.38946533 C-49.85987184 250.17427851 -49.86667847 247.95909377 -49.87423706 245.74391174 C-49.89185588 239.74581007 -49.8965907 233.74776552 -49.89786863 227.74964046 C-49.89929309 223.99691873 -49.90356827 220.24421138 -49.90886307 216.49149323 C-49.92639683 204.05986945 -49.93570501 191.62827334 -49.93420212 179.19663867 C-49.93412221 178.52792284 -49.93404229 177.859207 -49.93395996 177.17022705 C-49.9338782 176.50068486 -49.93379644 175.83114267 -49.9337122 175.14131132 C-49.93289977 164.29728058 -49.95203172 153.45338888 -49.98023669 142.60939834 C-50.00903899 131.44674873 -50.0224076 120.28414989 -50.02104914 109.12145829 C-50.02054063 102.86573696 -50.02616275 96.61017312 -50.04740524 90.35448456 C-50.06685089 84.46760562 -50.06686876 78.58103341 -50.05237198 72.6941433 C-50.05029066 70.54240912 -50.05494405 68.39065543 -50.0670929 66.23895454 C-50.16694324 47.31819893 -47.883734 29.60658491 -34.25085449 15.20294189 C-25.07693172 6.71317607 -12.69896782 0.03840351 0 0 Z " fill="#113062" transform="translate(70.5633544921875,21.85955810546875)"/>
<path d="M0 0 C1.88678719 -0.01007584 1.88678719 -0.01007584 3.81169128 -0.02035522 C7.24801013 -0.03795088 10.68422923 -0.04270803 14.12058878 -0.0439868 C16.27374067 -0.04541327 18.42686761 -0.04969234 20.58001328 -0.05498123 C28.10983627 -0.07346429 35.63958867 -0.08165452 43.16943359 -0.08007812 C50.15801249 -0.07887905 57.1462814 -0.09993966 64.13478196 -0.13156545 C70.15802097 -0.15783912 76.18115948 -0.16844072 82.20445526 -0.16716731 C85.79142477 -0.16666067 89.37811889 -0.17217595 92.96503067 -0.19352341 C96.97559528 -0.21674166 100.98547972 -0.2073177 104.99609375 -0.1953125 C106.1633046 -0.20655151 107.33051544 -0.21779053 108.53309631 -0.22937012 C121.48804337 -0.1314621 133.13278699 3.30908799 142.57373047 12.39599609 C152.98467697 23.51504006 154.7234903 34.35451121 154.57373047 49.22802734 C154.57276367 51.09297852 154.57276367 51.09297852 154.57177734 52.99560547 C154.52673098 62.15002683 154.52673098 62.15002683 153.38623047 63.29052734 C151.79012065 63.3838644 150.18989619 63.40798107 148.59106445 63.40405273 C147.57008163 63.4039772 146.54909882 63.40390167 145.49717712 63.40382385 C144.38677567 63.39866257 143.27637421 63.39350128 142.13232422 63.38818359 C141.00174088 63.38676865 139.87115753 63.3853537 138.70631409 63.38389587 C135.07875982 63.37827753 131.45126623 63.36572192 127.82373047 63.35302734 C125.3712574 63.34801471 122.91878337 63.34345139 120.46630859 63.33935547 C114.43957343 63.32915104 108.41297025 63.30957921 102.38623047 63.29052734 C102.38623047 54.38052734 102.38623047 45.47052734 102.38623047 36.29052734 C105.02623047 36.29052734 107.66623047 36.29052734 110.38623047 36.29052734 C110.35529297 34.43427734 110.35529297 34.43427734 110.32373047 32.54052734 C110.27189729 29.43053645 110.60400747 27.41941933 111.38623047 24.29052734 C101.15623047 24.29052734 90.92623047 24.29052734 80.38623047 24.29052734 C80.88123047 26.76552734 80.88123047 26.76552734 81.38623047 29.29052734 C81.4244767 31.6235472 81.43197331 33.95764243 81.38623047 36.29052734 C84.02623047 36.29052734 86.66623047 36.29052734 89.38623047 36.29052734 C89.38623047 45.20052734 89.38623047 54.11052734 89.38623047 63.29052734 C80.14623047 63.62052734 70.90623047 63.95052734 61.38623047 64.29052734 C61.29343807 69.16212824 61.21410784 74.0305567 61.16650391 78.90234375 C61.14662226 80.55284113 61.1195069 82.20327034 61.08447266 83.85351562 C60.78234161 98.4713267 61.9263183 111.37103801 71.38623047 123.29052734 C71.86833984 122.85740234 72.35044922 122.42427734 72.84716797 121.97802734 C73.47880859 121.42115234 74.11044922 120.86427734 74.76123047 120.29052734 C75.38771484 119.73365234 76.01419922 119.17677734 76.65966797 118.60302734 C78.38623047 117.29052734 78.38623047 117.29052734 80.38623047 117.29052734 C79.97630859 116.52869141 79.56638672 115.76685547 79.14404297 114.98193359 C78.60521484 113.94939453 78.06638672 112.91685547 77.51123047 111.85302734 C76.97755859 110.84369141 76.44388672 109.83435547 75.89404297 108.79443359 C74.38623047 105.29052734 74.38623047 105.29052734 72.38623047 96.29052734 C82.61623047 96.29052734 92.84623047 96.29052734 103.38623047 96.29052734 C96.3473934 108.02192246 85.91687987 116.29318027 75.35498047 124.70458984 C64.32363171 133.52360767 56.74632287 142.25807098 53.38623047 156.29052734 C52.12456639 171.2397796 54.47795241 183.54187493 64.38623047 195.29052734 C67.62282714 198.73029724 70.95486444 202.04557356 74.38623047 205.29052734 C76.93428073 204.10712325 78.49135494 203.18540287 80.51123047 201.16552734 C81.12998047 200.54677734 81.74873047 199.92802734 82.38623047 199.29052734 C83.04623047 199.29052734 83.70623047 199.29052734 84.38623047 199.29052734 C84.38623047 198.63052734 84.38623047 197.97052734 84.38623047 197.29052734 C83.81388672 197.04431641 83.24154297 196.79810547 82.65185547 196.54443359 C80.02104304 195.08841499 78.23814142 193.372755 76.13623047 191.22802734 C75.42982422 190.51517578 74.72341797 189.80232422 73.99560547 189.06787109 C72.38623047 187.29052734 72.38623047 187.29052734 72.38623047 186.29052734 C81.29623047 186.29052734 90.20623047 186.29052734 99.38623047 186.29052734 C93.0082345 194.79452197 86.82951347 201.2764325 78.51123047 207.72802734 C63.12092569 219.19440091 63.12092569 219.19440091 53.38623047 235.29052734 C20.38623047 235.29052734 -12.61376953 235.29052734 -46.61376953 235.29052734 C-46.77498167 185.07742482 -46.77498167 185.07742482 -46.80908203 164.02294922 C-46.83280919 149.48993275 -46.86069078 134.9570091 -46.91552734 120.42407227 C-46.95544684 109.83943336 -46.98121466 99.25486982 -46.99012351 88.67015773 C-46.99532956 83.06772169 -47.00753059 77.46550121 -47.03668976 71.86313438 C-47.06393952 66.58461083 -47.07219518 61.30639064 -47.06620026 56.02780342 C-47.06729622 54.09572575 -47.07519284 52.16363741 -47.09059143 50.23162079 C-47.19630567 36.27768858 -46.21806411 25.19082312 -36.61376953 14.29052734 C-36.08912109 13.67306641 -35.56447266 13.05560547 -35.02392578 12.41943359 C-25.49370121 1.99224672 -13.45761397 -0.0103426 0 0 Z " fill="#FDFDFD" transform="translate(80.61376953125,33.70947265625)"/>
<path d="M0 0 C10.54381312 -0.02312343 21.08762025 -0.04091509 31.63145351 -0.05181217 C36.52685374 -0.057041 41.42223668 -0.06413864 46.31762695 -0.07543945 C51.03787978 -0.08626834 55.75811592 -0.09227684 60.4783802 -0.09487724 C62.28338954 -0.09673149 64.08839792 -0.10035209 65.89340019 -0.10573006 C68.41259644 -0.11294052 70.9317229 -0.11399094 73.45092773 -0.11352539 C74.20474228 -0.11712067 74.95855682 -0.12071594 75.73521423 -0.12442017 C80.88594784 -0.11405216 80.88594784 -0.11405216 82 1 C82.10429061 3.36590884 82.14333258 5.70287515 82.14044189 8.06954956 C82.14341302 8.81809995 82.14638414 9.56665034 82.1494453 10.33788407 C82.15817046 12.86572937 82.1596438 15.39352752 82.16113281 17.92138672 C82.1657586 19.72632449 82.17078293 21.53126127 82.17617798 23.3361969 C82.18933429 28.25614047 82.19575417 33.17607038 82.20018864 38.0960288 C82.2031165 41.17076267 82.20722094 44.24549278 82.21169281 47.32022476 C82.22538138 56.94230408 82.23503919 66.56437485 82.2388947 76.18646324 C82.24336736 87.28821648 82.26087266 98.3898461 82.2898953 109.49156177 C82.31154728 118.07257713 82.321601 126.65355782 82.32293582 135.23460019 C82.32398209 140.35854469 82.32985109 145.48237321 82.34775543 150.60628891 C82.36429502 155.43420124 82.36636311 160.26191119 82.35761642 165.08984184 C82.35684897 166.8558157 82.36115002 168.62180068 82.37107468 170.38774681 C82.45553196 186.36155094 80.49626685 199.84619266 69.26171875 211.890625 C58.87353692 221.57908474 46.54302818 223.45656167 32.80859375 223.40405273 C30.90148117 223.41434761 30.90148117 223.41434761 28.95584106 223.42485046 C25.50124391 223.44263931 22.04690272 223.44164107 18.59227371 223.43590808 C15.69484766 223.43279611 12.79746937 223.43893064 9.90005016 223.44494683 C3.05930211 223.45894284 -3.78132092 223.45747135 -10.62207031 223.44604492 C-17.6516856 223.43456167 -24.68091944 223.44865385 -31.7104845 223.4754414 C-37.77370016 223.49767129 -43.8367967 223.50421965 -49.90005016 223.49836498 C-53.50923501 223.49501237 -57.11817533 223.49729663 -60.72732544 223.51461601 C-64.75465689 223.53310305 -68.78125614 223.51882358 -72.80859375 223.50170898 C-73.98606171 223.51137695 -75.16352966 223.52104492 -76.37667847 223.53100586 C-88.52945798 223.42332691 -99.1044585 219.58148714 -107.97265625 211.1171875 C-118.86579613 199.32206788 -119 188.50615202 -119 172 C-87.65 172 -56.3 172 -24 172 C-24 179.92 -24 187.84 -24 196 C-22.35 195.67 -20.7 195.34 -19 195 C-16.66698014 194.96175377 -14.33288492 194.95425716 -12 195 C-12.02320313 193.92621094 -12.04640625 192.85242188 -12.0703125 191.74609375 C-12.08908624 190.30990285 -12.1072847 188.87370435 -12.125 187.4375 C-12.14175781 186.73302734 -12.15851563 186.02855469 -12.17578125 185.30273438 C-12.18222656 184.60341797 -12.18867188 183.90410156 -12.1953125 183.18359375 C-12.20578613 182.54993896 -12.21625977 181.91628418 -12.22705078 181.26342773 C-11.91006911 178.10349538 -10.87245694 175.05359931 -10 172 C5.51 172 21.02 172 37 172 C38.52922623 178.11690492 39.23295676 181.9544216 39.125 188 C39.11597656 188.67933594 39.10695312 189.35867188 39.09765625 190.05859375 C39.07445493 191.70588741 39.03860167 193.35299526 39 195 C39.61488281 194.98839844 40.22976562 194.97679687 40.86328125 194.96484375 C41.67152344 194.95582031 42.47976562 194.94679688 43.3125 194.9375 C44.51326172 194.92009766 44.51326172 194.92009766 45.73828125 194.90234375 C48 195 48 195 51 196 C49.77969388 170.47645438 46.03788401 155.00363277 27 137 C23.05860922 138.66751148 20.2107188 141.22710649 17 144 C18.26457031 145.10408203 18.26457031 145.10408203 19.5546875 146.23046875 C20.66187491 147.21567788 21.76862276 148.20138115 22.875 149.1875 C23.43058594 149.67025391 23.98617187 150.15300781 24.55859375 150.65039062 C25.09355469 151.13056641 25.62851563 151.61074219 26.1796875 152.10546875 C26.67194824 152.54012451 27.16420898 152.97478027 27.67138672 153.42260742 C29 155 29 155 31 160 C19.45 160 7.9 160 -4 160 C0.34537328 151.30925343 8.79750996 145.21011913 16.265625 139.21875 C27.84785503 129.82059763 40.93148273 118.75255456 43 103 C44.141833 86.34758912 41.69792232 74.13571308 30.61328125 61.21875 C28.43610957 58.78523942 26.23566834 56.37974475 24 54 C23.44570312 54.433125 22.89140625 54.86625 22.3203125 55.3125 C21.23363281 56.1478125 21.23363281 56.1478125 20.125 57 C19.40570313 57.556875 18.68640625 58.11375 17.9453125 58.6875 C16 60 16 60 14 60 C14.42410156 60.47308594 14.84820312 60.94617188 15.28515625 61.43359375 C28 75.76923077 28 75.76923077 28 78 C17.11 78 6.22 78 -5 78 C-0.06636677 65.66591692 12.49591391 56.58603853 22.625 48.4375 C36.95969925 36.77779449 43.04946882 27.56449191 48 9 C32.16 9 16.32 9 0 9 C0 6.03 0 3.06 0 0 Z " fill="#FDFDFE" transform="translate(153,109)"/>
<path d="M0 0 C79.77373737 0 79.77373737 0 94 14 C103.50027725 25.03052325 104.99150465 37.84520202 104.18017578 51.84716797 C103.27164253 62.70278619 98.61028306 70.75294123 90.875 78.25 C74.16917656 92.1163848 50.22973477 90 30 90 C30 105.84 30 121.68 30 138 C20.1 138 10.2 138 0 138 C0 92.46 0 46.92 0 0 Z " fill="#143566" transform="translate(608,69)"/>
<path d="M0 0 C11.22 0 22.44 0 34 0 C35.18851563 3.33480469 36.37703125 6.66960937 37.6015625 10.10546875 C46.72752988 35.69916737 55.88401166 61.28159736 65.10204315 86.84228897 C65.8045643 88.79049303 66.5068327 90.73878802 67.20904541 92.68710327 C68.54074643 96.3815929 69.87367382 100.07563907 71.20703125 103.76953125 C71.62190796 104.91936996 72.03678467 106.06920868 72.4642334 107.25389099 C74.35243893 112.47813289 76.25243935 117.69726569 78.18896484 122.90380859 C78.52063156 123.79613693 78.85229828 124.68846527 79.1940155 125.60783386 C79.80297212 127.24141387 80.41483913 128.87391326 81.03022766 130.50508118 C83 135.78216658 83 135.78216658 83 138 C73.1 138 63.2 138 53 138 C51.57298741 133.90753175 50.14786175 129.8145072 48.72753906 125.71972656 C48.24362265 124.32643703 47.7586014 122.93353072 47.27246094 121.54101562 C46.57457494 119.5413586 45.8806516 117.54036477 45.1875 115.5390625 C44.76855469 114.33459473 44.34960938 113.13012695 43.91796875 111.88916016 C43 109 43 109 43 107 C25.51 107.33 8.02 107.66 -10 108 C-13.63 117.9 -17.26 127.8 -21 138 C-30.57 138 -40.14 138 -50 138 C-46.62482377 126.74941255 -46.62482377 126.74941255 -44.88134766 121.98608398 C-44.48813324 120.90749115 -44.09491882 119.82889832 -43.68978882 118.71762085 C-43.26879913 117.57201691 -42.84780945 116.42641296 -42.4140625 115.24609375 C-41.96431061 114.01525055 -41.51455872 112.78440735 -41.05117798 111.51626587 C-39.83217473 108.18067357 -38.60951854 104.84643151 -37.38606262 101.51247025 C-36.36456882 98.72745732 -35.34522445 95.94165982 -34.32588959 93.15585613 C-25.28030583 68.43539475 -16.1889556 43.73163706 -7.078125 19.03515625 C-6.70724762 18.02957672 -6.33637024 17.02399719 -5.95425415 15.98794556 C-5.60744598 15.04841034 -5.26063782 14.10887512 -4.90332031 13.14086914 C-4.60629211 12.33605606 -4.30926392 11.53124298 -4.00323486 10.70204163 C-2.67751939 7.13145359 -1.33734343 3.56624915 0 0 Z " fill="#123364" transform="translate(507,69)"/>
<path d="M0 0 C9.57 0 19.14 0 29 0 C29 19.47 29 38.94 29 59 C35.68833729 52.31166271 41.8188286 45.08527809 47.74609375 37.7265625 C50.92303684 33.88339738 54.28631551 30.22484399 57.66015625 26.5546875 C60.22544956 23.75384972 62.72443066 20.90236943 65.21484375 18.03515625 C68.03501909 14.82003294 70.91382789 11.65805955 73.7890625 8.4921875 C76.10466385 5.98775643 76.10466385 5.98775643 78.12915039 2.88085938 C80.44440585 0.11272522 80.93492143 0.01172549 84.78051758 -0.68115234 C86.23553469 -0.68021082 87.690787 -0.6467926 89.14453125 -0.5859375 C89.91431808 -0.57744781 90.68410492 -0.56895813 91.47721863 -0.56021118 C93.9237671 -0.52675703 96.36695691 -0.45150592 98.8125 -0.375 C100.47586368 -0.34488948 102.13927929 -0.31751555 103.80273438 -0.29296875 C107.86977371 -0.22699369 111.93431851 -0.12353843 116 0 C109.21796154 7.94667422 102.34786304 15.73866444 94.8984375 23.0703125 C92.40008124 25.60979396 90.10220589 28.29925133 87.78125 31 C85.29742572 33.78885533 82.63288563 36.37686983 79.97265625 38.99609375 C77.43632422 41.5726053 75.09772743 44.29426301 72.7421875 47.03515625 C69.96823079 50.16363209 66.99616071 53.08580113 64 56 C65.49535395 60.44452424 67.9412209 63.8714602 70.75 67.5625 C75.20963916 73.53329972 79.55043969 79.57407932 83.8125 85.6875 C84.39990967 86.52917725 84.98731934 87.37085449 85.5925293 88.23803711 C87.39626453 90.82449302 89.19829803 93.41212743 91 96 C93.35209171 99.37645218 95.70615111 102.75151737 98.0625 106.125 C98.63363525 106.94315186 99.20477051 107.76130371 99.79321289 108.60424805 C104.4214229 115.21569611 109.13711283 121.76150525 113.91430664 128.26611328 C114.4221167 128.9620459 114.92992676 129.65797852 115.453125 130.375 C116.12069824 131.28378906 116.12069824 131.28378906 116.80175781 132.2109375 C118.05005465 134.07473522 119.03983372 135.97484092 120 138 C115.28636535 138.22365774 110.57585703 138.38630177 105.8581543 138.49438477 C104.25636985 138.53945767 102.65495191 138.60074152 101.05444336 138.67895508 C87.84887593 139.30779162 87.84887593 139.30779162 83.58325195 136.29052734 C81.74931123 133.95836904 80.38571954 131.62056342 79 129 C77.91106917 127.43442729 76.80271717 125.88219197 75.67578125 124.34375 C74.55237012 122.73077822 73.43134377 121.1161433 72.3125 119.5 C71.08625364 117.73806118 69.85968553 115.97634626 68.6328125 114.21484375 C68.02469727 113.34069824 67.41658203 112.46655273 66.79003906 111.56591797 C64.10648024 107.71919085 61.39759322 103.8905561 58.6875 100.0625 C53.7445462 93.07384686 48.85522747 86.04988837 44 79 C42.989375 79.845625 41.97875 80.69125 40.9375 81.5625 C40.36902344 82.03816406 39.80054688 82.51382813 39.21484375 83.00390625 C38.48394531 83.66261719 37.75304687 84.32132812 37 85 C36.4337793 85.44496826 35.86755859 85.88993652 35.28417969 86.34838867 C31.4997808 89.60255585 29.55995006 91.95737189 29.11352539 97.01733398 C29.07309462 98.92649984 29.06959757 100.83670599 29.09765625 102.74609375 C29.07921913 104.2627639 29.07921913 104.2627639 29.06040955 105.81007385 C29.02877288 109.01996207 29.04493031 112.22754172 29.0625 115.4375 C29.04938566 117.62176606 29.03314315 119.80601573 29.01367188 121.99023438 C28.9670431 127.32821549 28.98512653 132.6604251 29 138 C19.43 138 9.86 138 0 138 C0 92.46 0 46.92 0 0 Z " fill="#133465" transform="translate(325,69)"/>
<path d="M0 0 C10.53043507 8.53590644 14.94446459 17.57049383 16.43359375 30.97265625 C7.19359375 30.97265625 -2.04640625 30.97265625 -11.56640625 30.97265625 C-13.21640625 27.67265625 -14.86640625 24.37265625 -16.56640625 20.97265625 C-21.05018965 16.11522423 -27.0650752 14.35962093 -33.5 13.6484375 C-42.07999171 13.33146965 -48.04029372 15.02223556 -54.62890625 20.53515625 C-57.36695223 25.39297977 -57.55152261 29.52112252 -56.56640625 34.97265625 C-51.59567712 43.1388541 -38.26185675 45.50179209 -29.54882812 47.65625 C-28.42025391 47.92566406 -27.29167969 48.19507813 -26.12890625 48.47265625 C-10.52304961 52.2109073 4.79128186 56.19792498 14.43359375 69.97265625 C19.85596947 80.32112245 21.00441816 90.27303365 17.80859375 101.59765625 C13.96425313 112.94249362 7.22172536 121.07794591 -3.37890625 126.72265625 C-13.65840539 131.37983159 -23.14414323 132.47260314 -34.37890625 132.41015625 C-35.64283203 132.43013672 -36.90675781 132.45011719 -38.20898438 132.47070312 C-53.52731158 132.46285964 -68.07990087 128.33546276 -79.44140625 117.72265625 C-86.77484846 109.8523013 -91.56640625 98.92193021 -91.56640625 87.97265625 C-82.32640625 87.97265625 -73.08640625 87.97265625 -63.56640625 87.97265625 C-62.24640625 90.94265625 -60.92640625 93.91265625 -59.56640625 96.97265625 C-55.68400815 102.688409 -51.24678287 105.39144793 -44.83203125 107.55859375 C-36.45516144 109.08953892 -25.92097433 109.39975631 -18.30078125 105.25 C-14.53286249 102.47497875 -12.06529883 99.469334 -10.56640625 94.97265625 C-10.1857728 90.93794166 -10.30107979 88.52541972 -12.06640625 84.84765625 C-19.4982666 76.30101685 -30.03159994 74.68725651 -40.56640625 71.97265625 C-73.22354542 63.51860357 -73.22354542 63.51860357 -82.56640625 49.97265625 C-87.51285715 41.29467222 -88.22975712 29.57434934 -85.8125 19.98046875 C-84.86675235 17.54006892 -83.81381188 15.27188126 -82.56640625 12.97265625 C-82.00953125 11.94140625 -81.45265625 10.91015625 -80.87890625 9.84765625 C-62.53574972 -12.95734916 -23.74695339 -16.61933885 0 0 Z " fill="#123364" transform="translate(815.56640625,76.02734375)"/>
<path d="M0 0 C3.96 0 7.92 0 12 0 C12.66 2.97 13.32 5.94 14 9 C19.834086 10.08771095 21.92658322 10.24134961 27 7 C30.2793591 8.15703194 32.08324143 9.9657963 34.25 12.625 C35.03117187 13.57246094 35.03117187 13.57246094 35.828125 14.5390625 C36.40820312 15.26222656 36.40820312 15.26222656 37 16 C36.319375 16.721875 35.63875 17.44375 34.9375 18.1875 C32.71061697 20.79343753 32.71061697 20.79343753 33.1875 23.625 C33.455625 24.40875 33.72375 25.1925 34 26 C34.495 27.485 34.495 27.485 35 29 C36.87387216 29.80212628 36.87387216 29.80212628 39.0625 30.1875 C40.361875 30.455625 41.66125 30.72375 43 31 C43 34.96 43 38.92 43 43 C40.03 43.66 37.06 44.32 34 45 C32.92505513 50.76561337 32.67796721 53.01695082 36 58 C35.62668397 61.36663179 34.36810224 62.97454258 31.9375 65.25 C31.11572266 66.03117187 31.11572266 66.03117187 30.27734375 66.828125 C29.85582031 67.21484375 29.43429688 67.6015625 29 68 C28.443125 67.71125 27.88625 67.4225 27.3125 67.125 C26.1678125 66.568125 26.1678125 66.568125 25 66 C23.824375 65.4121875 23.824375 65.4121875 22.625 64.8125 C19.40932399 63.81717171 17.24265162 64.24589497 14 65 C13.34 67.97 12.68 70.94 12 74 C8.04 74 4.08 74 0 74 C-0.66 71.36 -1.32 68.72 -2 66 C-6.44639853 64.05063307 -6.44639853 64.05063307 -11.0234375 64.7578125 C-12.7333297 65.75583121 -14.37338569 66.87132885 -16 68 C-16.99 67.34 -17.98 66.68 -19 66 C-19 65.34 -19 64.68 -19 64 C-19.66 64 -20.32 64 -21 64 C-22.75 62.3125 -22.75 62.3125 -24 60 C-23.25 57.5 -23.25 57.5 -22 55 C-20.7317759 51.42591391 -21.24635405 48.68449132 -22 45 C-23.299375 44.855625 -24.59875 44.71125 -25.9375 44.5625 C-29.875 44.125 -29.875 44.125 -31 43 C-31.07244053 40.98035801 -31.08377188 38.95832876 -31.0625 36.9375 C-31.05347656 35.83277344 -31.04445312 34.72804687 -31.03515625 33.58984375 C-31.02355469 32.73519531 -31.01195312 31.88054687 -31 31 C-28.36 30.34 -25.72 29.68 -23 29 C-21.6356806 25.0582822 -21.6356806 25.0582822 -21 21 C-22.70464277 17.52218792 -22.70464277 17.52218792 -25 15 C-22.36 12.36 -19.72 9.72 -17 7 C-16.0925 7.309375 -15.185 7.61875 -14.25 7.9375 C-13.1775 8.288125 -12.105 8.63875 -11 9 C-10.319375 9.226875 -9.63875 9.45375 -8.9375 9.6875 C-6.43686759 10.09082781 -4.43817226 9.60954306 -2 9 C-1.34 6.03 -0.68 3.06 0 0 Z " fill="#123263" transform="translate(84,168)"/>
<path d="M0 0 C3.96 0 7.92 0 12 0 C12.66 2.97 13.32 5.94 14 9 C19.834086 10.08771095 21.92658322 10.24134961 27 7 C30.87364442 7.96841111 33.53827756 10.97559815 36 14 C35.92566908 16.97323693 35.08306769 18.82512064 33.8125 21.5 C32.79966754 23.99619517 32.79966754 23.99619517 33.375 26.6875 C35.90182717 30.28336943 38.75729895 30.24726272 43 31 C43 34.96 43 38.92 43 43 C40.03 43.66 37.06 44.32 34 45 C32.70834474 50.40114283 32.70834474 50.40114283 34.5 55.25 C34.995 55.8275 35.49 56.405 36 57 C35.60769912 60.23814452 34.4424256 62.01190502 32.1875 64.3125 C31.43533203 65.11107422 31.43533203 65.11107422 30.66796875 65.92578125 C29 67 29 67 26.94921875 66.73828125 C25 66 25 66 22.625 64.875 C19.39554082 63.79851361 17.27528739 64.23830526 14 65 C13.34 67.97 12.68 70.94 12 74 C8.37 74 4.74 74 1 74 C0.608125 72.72125 0.21625 71.4425 -0.1875 70.125 C-1.48490376 66.66665615 -1.48490376 66.66665615 -4.4375 64.4375 C-8.67708186 63.71366895 -10.43610496 64.62406997 -14 67 C-17.24659193 66.67341975 -19.01636845 65.43805077 -21.3125 63.1875 C-21.84488281 62.68605469 -22.37726562 62.18460938 -22.92578125 61.66796875 C-24 60 -24 60 -23.79296875 57.98828125 C-23 56 -23 56 -21 53 C-20.97250522 50.93089407 -20.97250522 50.93089407 -21.375 48.8125 C-21.58125 47.554375 -21.7875 46.29625 -22 45 C-24.97 44.34 -27.94 43.68 -31 43 C-31 39.04 -31 35.08 -31 31 C-28.36 30.34 -25.72 29.68 -23 29 C-21.05063307 24.55360147 -21.05063307 24.55360147 -21.7578125 19.9765625 C-22.75583121 18.2666703 -23.87132885 16.62661431 -25 15 C-22.36 12.36 -19.72 9.72 -17 7 C-16.0925 7.309375 -15.185 7.61875 -14.25 7.9375 C-13.1775 8.288125 -12.105 8.63875 -11 9 C-10.319375 9.2475 -9.63875 9.495 -8.9375 9.75 C-5.92727707 10.13841586 -4.54171796 9.67218287 -2 8 C-0.93904832 5.32857807 -0.50694022 2.85729943 0 0 Z " fill="#123163" transform="translate(84,86)"/>
<path d="M0 0 C6.49698522 3.72015513 10.85306561 8.13784495 13.28515625 15.29296875 C15.33380748 24.47348709 14.60165428 33.84409336 9.91015625 42.09375 C4.99768153 48.02784557 -0.89663541 51.33355996 -8.46484375 52.44140625 C-16.05016774 52.90363693 -22.17390463 50.41611519 -27.9453125 45.51953125 C-34.46356566 38.61501123 -35.67912017 30.55483347 -35.44140625 21.31640625 C-34.62243089 13.80913216 -31.97332928 7.94762556 -26.08984375 3.09375 C-25.09984375 2.2584375 -25.09984375 2.2584375 -24.08984375 1.40625 C-16.96863114 -3.26704577 -7.73247081 -3.42959691 0 0 Z " fill="#112D60" transform="translate(750.08984375,254.90625)"/>
<path d="M0 0 C5.79311406 3.67639931 9.06805146 8.39026968 11 15 C12.27110405 24.05802743 12.14390309 34.14717753 7 42 C2.30325131 47.69450359 -3.8200918 50.28415856 -11.03515625 51.28125 C-17.57757731 51.59341323 -24.08687545 49.73832302 -29.3125 45.75 C-36.35732263 38.54134429 -37.33552499 31.30577639 -37.38720703 21.57714844 C-37.24938878 14.32078518 -35.44961282 8.89502986 -30.578125 3.39453125 C-21.75442403 -4.6938613 -10.40429461 -4.92203168 0 0 Z " fill="#112E60" transform="translate(497,256)"/>
<path d="M0 0 C4.24875 -0.061875 8.4975 -0.12375 12.875 -0.1875 C14.1935498 -0.21481201 15.51209961 -0.24212402 16.87060547 -0.27026367 C25.21297543 -0.32860631 33.5096311 0.10168995 40.4375 5.25 C45.68681794 10.88341438 46.53394527 15.8524404 46.27734375 23.35546875 C45.68788259 28.97610545 43.74536106 32.57814226 39.625 36.3125 C33.35441356 41.25535221 26.80011113 42.1381449 18.9453125 42.09765625 C17.94516113 42.09515869 16.94500977 42.09266113 15.91455078 42.09008789 C14.03872314 42.07643188 14.03872314 42.07643188 12.125 42.0625 C6.123125 42.0315625 6.123125 42.0315625 0 42 C0 28.14 0 14.28 0 0 Z " fill="#FCFCFD" transform="translate(638,93)"/>
<path d="M0 0 C3.83953876 2.21511851 5.64928157 4.32856577 8.25 7.875 C9.301875 6.4828125 9.301875 6.4828125 10.375 5.0625 C13.57163783 1.29598802 16.56696151 -0.8051676 21.609375 -1.40625 C27.14261321 -1.60745866 31.3865014 -0.98588153 36.25 1.875 C39.51504859 4.97891632 42.07787156 8.13066421 42.37025452 12.7922821 C42.36803391 13.51398087 42.36581329 14.23567963 42.36352539 14.97924805 C42.36341209 16.2101844 42.36341209 16.2101844 42.36329651 17.46598816 C42.35813522 18.34732925 42.35297394 19.22867035 42.34765625 20.13671875 C42.3462413 21.04251175 42.34482635 21.94830475 42.34336853 22.88154602 C42.33777001 25.77523091 42.32521781 28.66883849 42.3125 31.5625 C42.30748481 33.52408742 42.30292193 35.48567606 42.29882812 37.44726562 C42.28780107 42.25654021 42.27053747 47.065757 42.25 51.875 C39.61 51.875 36.97 51.875 34.25 51.875 C34.23541748 50.88693359 34.22083496 49.89886719 34.20581055 48.88085938 C34.14743665 45.18291687 34.07020976 41.48555864 33.98754883 37.78808594 C33.95448202 36.19378202 33.92639441 34.59936617 33.90356445 33.00488281 C33.86967928 30.70069073 33.81735263 28.39750775 33.76171875 26.09375 C33.75532883 25.39133179 33.7489389 24.68891357 33.74235535 23.96520996 C33.58983508 18.72481385 32.36316871 14.68299162 30.25 9.875 C27.44912197 7.38533064 23.97092 7.40170366 20.28515625 7.484375 C16.59208047 8.19321872 14.81356018 10.18638811 12.25 12.875 C11.00526468 16.60920597 11.01790215 20.14865238 10.93359375 24.04296875 C10.91281265 24.83778152 10.89203156 25.6325943 10.87062073 26.45149231 C10.80527913 28.98840763 10.74631192 31.52542573 10.6875 34.0625 C10.64430014 35.78321372 10.60068537 37.50391708 10.55664062 39.22460938 C10.44961352 43.44130113 10.34830276 47.6580962 10.25 51.875 C7.28 51.875 4.31 51.875 1.25 51.875 C1.23541748 50.81587402 1.22083496 49.75674805 1.20581055 48.66552734 C1.14762673 44.71792658 1.07039593 40.77088429 0.98754883 36.82373047 C0.95439364 35.11874488 0.92633263 33.41365202 0.90356445 31.70849609 C0.86984432 29.25051366 0.81752206 26.79350594 0.76171875 24.3359375 C0.75532883 23.57944916 0.7489389 22.82296082 0.74235535 22.04354858 C0.61182007 17.29347233 -0.19422876 14.01818959 -2.75 9.875 C-6.09870986 7.24387082 -9.62988064 7.51358602 -13.75 7.875 C-17.47317727 9.31350031 -18.51581551 10.42173625 -20.35864258 13.98852539 C-21.96285001 17.93670233 -22.22355782 21.77039495 -22.26171875 25.99609375 C-22.27966995 26.74085464 -22.29762115 27.48561554 -22.31611633 28.25294495 C-22.3698231 30.60607423 -22.40398543 32.95900544 -22.4375 35.3125 C-22.47070829 36.91864713 -22.50520115 38.52476824 -22.54101562 40.13085938 C-22.62552574 44.04542899 -22.69252371 47.95994394 -22.75 51.875 C-25.72 51.875 -28.69 51.875 -31.75 51.875 C-31.75 34.715 -31.75 17.555 -31.75 -0.125 C-28.78 -0.125 -25.81 -0.125 -22.75 -0.125 C-22.42 1.525 -22.09 3.175 -21.75 4.875 C-20.821875 4.070625 -19.89375 3.26625 -18.9375 2.4375 C-13.38194003 -2.37731864 -6.75378515 -2.02613555 0 0 Z " fill="#112E61" transform="translate(549.75,254.125)"/>
<path d="M0 0 C3.9959423 2.97282664 6.14927232 6.52271878 7.6171875 11.203125 C7.88315986 14.21237859 7.85016982 17.20372374 7.8125 20.22265625 C7.8096701 21.08122726 7.80684021 21.93979828 7.80392456 22.8243866 C7.7927682 25.55494375 7.76767209 28.2851677 7.7421875 31.015625 C7.73215182 32.87174004 7.723027 34.72786024 7.71484375 36.58398438 C7.69284376 41.12382546 7.65834531 45.66341881 7.6171875 50.203125 C4.9771875 50.203125 2.3371875 50.203125 -0.3828125 50.203125 C-0.8778125 46.738125 -0.8778125 46.738125 -1.3828125 43.203125 C-1.8778125 43.96625 -2.3728125 44.729375 -2.8828125 45.515625 C-7.21748478 50.1753977 -12.12425488 51.35176849 -18.3828125 51.640625 C-24.13081293 51.46349093 -28.72015401 49.52746924 -33.04296875 45.75390625 C-36.20975771 42.08855576 -35.65818452 37.43290532 -35.5859375 32.86328125 C-35.32158874 29.4013292 -34.81928256 27.71573475 -32.3828125 25.203125 C-27.38670237 22.15341611 -22.62176673 20.06784504 -16.71484375 20.10546875 C-15.82216797 20.10869141 -14.92949219 20.11191406 -14.00976562 20.11523438 C-12.61661133 20.12780273 -12.61661133 20.12780273 -11.1953125 20.140625 C-10.25494141 20.14513672 -9.31457031 20.14964844 -8.34570312 20.15429688 C-6.02467538 20.16607874 -3.70377606 20.18252942 -1.3828125 20.203125 C-1.61167559 18.42943608 -1.8667363 16.65911423 -2.1328125 14.890625 C-2.27203125 13.90449219 -2.41125 12.91835938 -2.5546875 11.90234375 C-3.18040818 9.13574763 -3.18040818 9.13574763 -5.15234375 7.37109375 C-9.092093 5.30807269 -13.05412468 5.68396309 -17.3828125 6.203125 C-21.69058133 7.99802868 -22.22828131 8.89406262 -24.3828125 13.203125 C-27.3528125 13.203125 -30.3228125 13.203125 -33.3828125 13.203125 C-31.19949919 5.38916156 -29.44442634 2.5240472 -22.3203125 -1.546875 C-15.11502644 -4.39437888 -6.65688147 -3.9223119 0 0 Z " fill="#0F285C" transform="translate(357.3828125,255.796875)"/>
<path d="M0 0 C3.67895543 2.78476487 6.21126603 5.84864183 7.6875 10.27734375 C7.77294291 11.61263182 7.80524625 12.95178263 7.80102539 14.28979492 C7.80094986 15.09039841 7.80087433 15.89100189 7.80079651 16.71586609 C7.79563522 17.5753334 7.79047394 18.43480072 7.78515625 19.3203125 C7.7837413 20.20390945 7.78232635 21.08750641 7.78086853 21.99787903 C7.77527069 24.82023503 7.76271861 27.64251172 7.75 30.46484375 C7.74498472 32.37825406 7.74042186 34.29166562 7.73632812 36.20507812 C7.72530197 40.89586389 7.70803883 45.58659038 7.6875 50.27734375 C5.0475 50.27734375 2.4075 50.27734375 -0.3125 50.27734375 C-0.8075 46.81234375 -0.8075 46.81234375 -1.3125 43.27734375 C-1.8075 44.04046875 -2.3025 44.80359375 -2.8125 45.58984375 C-7.14717228 50.24961645 -12.05394238 51.42598724 -18.3125 51.71484375 C-24.85422531 51.48336732 -29.32089585 49.36852811 -33.8125 44.65234375 C-35.84481798 40.07962829 -35.98950301 36.20625594 -35.3125 31.27734375 C-33.58884733 27.10428991 -31.09151679 24.71271013 -27.3125 22.27734375 C-21.34322163 20.43513461 -16.03102136 20.02068125 -9.8125 20.15234375 C-8.57886719 20.16587891 -8.57886719 20.16587891 -7.3203125 20.1796875 C-5.31757917 20.2029751 -3.31499846 20.23883416 -1.3125 20.27734375 C-1.59567926 18.67165709 -1.88937791 17.06782328 -2.1875 15.46484375 C-2.34992187 14.57152344 -2.51234375 13.67820312 -2.6796875 12.7578125 C-3.22438449 10.05006529 -3.22438449 10.05006529 -5.3125 7.27734375 C-10.34200475 5.60084217 -15.34041589 5.43815902 -20.25 7.52734375 C-22.67923048 9.35635173 -22.67923048 9.35635173 -24.3125 13.27734375 C-27.2825 13.27734375 -30.2525 13.27734375 -33.3125 13.27734375 C-31.50067294 6.53332082 -30.2222944 3.10132836 -24.3125 -0.72265625 C-16.964202 -4.39680525 -7.08343347 -4.14676001 0 0 Z " fill="#112C5F" transform="translate(638.3125,255.72265625)"/>
<path d="M0 0 C4.17456304 4.17456304 6.08440229 8.36373907 6.22705078 14.23950195 C6.22673632 15.90579527 6.21556719 17.57211101 6.1953125 19.23828125 C6.1924826 20.11904831 6.18965271 20.99981537 6.18673706 21.90727234 C6.17557833 24.70915545 6.15048171 27.51071416 6.125 30.3125 C6.11496463 32.21679225 6.10583975 34.12108952 6.09765625 36.02539062 C6.07565309 40.68371797 6.04115294 45.34180406 6 50 C3.03 50 0.06 50 -3 50 C-3.01458252 48.90534424 -3.02916504 47.81068848 -3.04418945 46.68286133 C-3.10228739 42.61043095 -3.17951927 38.53854685 -3.26245117 34.46655273 C-3.29564654 32.70622645 -3.32369524 30.94579512 -3.34643555 29.18530273 C-3.3800812 26.65042475 -3.4324006 24.11650477 -3.48828125 21.58203125 C-3.49467117 20.79850784 -3.5010611 20.01498444 -3.50764465 19.2077179 C-3.62960365 14.64590538 -4.19202009 11.64155141 -7 8 C-10.42765252 5.42926061 -13.83971296 5.56962548 -18 6 C-21.27330226 7.66753134 -23.39123689 8.86172489 -25.14208984 12.13549805 C-26.2423827 15.80929887 -26.35468873 19.34204783 -26.4140625 23.14453125 C-26.43342865 23.91431808 -26.4527948 24.68410492 -26.4727478 25.47721863 C-26.53225623 27.92220171 -26.57881295 30.36723262 -26.625 32.8125 C-26.66320631 34.47593134 -26.70225957 36.13934347 -26.7421875 37.80273438 C-26.83793383 41.86833241 -26.92207009 45.93402301 -27 50 C-29.97 50 -32.94 50 -36 50 C-36 32.84 -36 15.68 -36 -2 C-33.03 -2 -30.06 -2 -27 -2 C-27 0.31 -27 2.62 -27 5 C-26.278125 4.05125 -25.55625 3.1025 -24.8125 2.125 C-18.57022816 -5.24748819 -7.96601083 -4.53394267 0 0 Z " fill="#123164" transform="translate(810,256)"/>
<path d="M0 0 C2.64 0 5.28 0 8 0 C8.01981934 0.99330322 8.03963867 1.98660645 8.06005859 3.01000977 C8.13654883 6.72086494 8.22519658 10.43135003 8.31738281 14.1418457 C8.35549419 15.74300796 8.39037713 17.34425063 8.421875 18.94555664 C8.46791611 21.25696414 8.52584208 23.56782644 8.5859375 25.87890625 C8.59748871 26.58648575 8.60903992 27.29406525 8.62094116 28.02308655 C8.75550663 32.62951546 9.45063289 36.65734532 11 41 C13.83906549 43.51460087 15.67533647 43.95867919 19.4375 44.4375 C23.68345227 43.91606726 25.73817577 42.73082959 29 40 C32.57467717 35.06354105 32.13399737 27.83579872 32.31640625 21.97265625 C32.37924805 20.04389648 32.37924805 20.04389648 32.44335938 18.07617188 C32.483157 16.73828375 32.52286951 15.40039309 32.5625 14.0625 C32.60576654 12.69725438 32.64938321 11.33201982 32.69335938 9.96679688 C32.79901153 6.64462348 32.90111395 3.32238054 33 0 C35.64 0 38.28 0 41 0 C41 17.16 41 34.32 41 52 C38.36 52 35.72 52 33 52 C32.67 50.35 32.34 48.7 32 47 C31.0925 47.804375 30.185 48.60875 29.25 49.4375 C25.09752284 53.11810476 20.76493366 53.35223553 15.37890625 53.28125 C10.06682644 52.65322086 6.19870524 50.2601773 2.5625 46.4375 C0.47120785 43.17508424 -0.12520195 40.69063391 -0.11352539 36.89575195 C-0.11344986 36.07512772 -0.11337433 35.25450348 -0.11329651 34.40901184 C-0.10813522 33.52767075 -0.10297394 32.64632965 -0.09765625 31.73828125 C-0.0962413 30.83248825 -0.09482635 29.92669525 -0.09336853 28.99345398 C-0.08777001 26.09976909 -0.07521781 23.20616151 -0.0625 20.3125 C-0.05748481 18.35091258 -0.05292193 16.38932394 -0.04882812 14.42773438 C-0.03780107 9.61845979 -0.02053747 4.809243 0 0 Z " fill="#0F2A5D" transform="translate(376,254)"/>
<path d="M0 0 C0.66 0 1.32 0 2 0 C4.10427115 6.11819812 6.20331563 12.23817152 8.29882812 18.359375 C9.0115077 20.43920941 9.72535913 22.51864267 10.44042969 24.59765625 C11.47122599 27.5952923 12.49772459 30.59437131 13.5234375 33.59375 C13.84122162 34.51490601 14.15900574 35.43606201 14.48641968 36.38513184 C14.7865799 37.26544067 15.08674011 38.14574951 15.39599609 39.05273438 C15.65802826 39.81662476 15.92006042 40.58051514 16.19003296 41.36755371 C17.2680819 44.87128384 18.11090547 48.44362189 19 52 C7.12 52 -4.76 52 -17 52 C-15.68229277 46.07031746 -14.33334673 40.6448128 -12.28515625 35 C-12.02874863 34.27941406 -11.772341 33.55882812 -11.50816345 32.81640625 C-10.69793419 30.54245012 -9.88051662 28.27116489 -9.0625 26 C-8.25120713 23.73273265 -7.44143084 21.4649283 -6.63192749 19.19702148 C-6.11481281 17.74840012 -5.59710575 16.29999006 -5.07876587 14.85180664 C-3.31753565 9.9226621 -1.62306229 4.97663698 0 0 Z " fill="#FBFCFC" transform="translate(522,101)"/>
<path d="M0 0 C5.52835689 2.01997656 8.60276585 5.01021939 11.08984375 10.33203125 C13.27097141 16.72563723 12.7201785 24.0959432 10.0546875 30.27734375 C7.6563593 34.19461314 4.3524325 36.54918917 0 38 C-4.66507623 38.3823833 -7.04127641 38.47936179 -11.25 36.375 C-16.17796851 32.11902719 -18.6911329 27.87865796 -19.203125 21.44921875 C-19.30468273 15.46577595 -19.10713245 11.17855409 -16 6 C-11.08299795 0.9649899 -7.02321161 -0.72066537 0 0 Z " fill="#FBFCFD" transform="translate(743,261)"/>
<path d="M0 0 C4.04764816 2.6860823 6.0428927 5.81527405 7.25 10.5 C7.99222307 17.88849331 8.18382823 24.00825999 4.25 30.5 C0.82355501 34.1705683 -2.401008 36.38567864 -7.4375 36.8125 C-12.0583821 36.72863644 -15.21477794 35.46242659 -18.75 32.5 C-23.70030226 26.91504361 -23.44291817 20.40772582 -23.12890625 13.265625 C-22.57503896 7.76121195 -21.55405901 4.84973046 -17.20703125 1.20703125 C-11.72741155 -2.46694717 -5.94789907 -2.84685768 0 0 Z " fill="#FCFDFD" transform="translate(491.75,262.5)"/>
<path d="M0 0 C2.97 0 5.94 0 9 0 C9 4.62 9 9.24 9 14 C13.62 14 18.24 14 23 14 C23 16.64 23 19.28 23 22 C18.38 22 13.76 22 9 22 C9.12003844 26.34181575 9.24275285 30.68338439 9.37231445 35.02490234 C9.41556035 36.5010939 9.45724256 37.97733215 9.49731445 39.45361328 C9.55526846 41.57859348 9.61888946 43.70334093 9.68359375 45.828125 C9.72025146 47.1059082 9.75690918 48.38369141 9.79467773 49.70019531 C9.90903116 53.1512792 9.90903116 53.1512792 11 57 C15.29 57 19.58 57 24 57 C24 59.64 24 62.28 24 65 C21.01294343 66.49352829 17.9618749 66.26567862 14.6875 66.3125 C12.71330078 66.36857422 12.71330078 66.36857422 10.69921875 66.42578125 C6.38798913 65.92955735 4.86541371 65.230767 2 62 C0.21613075 56.9795436 -0.27479305 52.37737496 -0.1953125 47.09765625 C-0.1924826 46.3750914 -0.18965271 45.65252655 -0.18673706 44.9080658 C-0.17564386 42.62603384 -0.15056088 40.34441103 -0.125 38.0625 C-0.11495611 36.50456301 -0.10583274 34.94661979 -0.09765625 33.38867188 C-0.07574033 29.59229301 -0.04128738 25.7962156 0 22 C-2.97 22 -5.94 22 -9 22 C-9 19.36 -9 16.72 -9 14 C-6.03 14 -3.06 14 0 14 C0 9.38 0 4.76 0 0 Z " fill="#142F60" transform="translate(663,240)"/>
<path d="M0 0 C2.97 0 5.94 0 9 0 C9 4.62 9 9.24 9 14 C13.29 14 17.58 14 22 14 C22 16.64 22 19.28 22 22 C17.71 22 13.42 22 9 22 C9.09357699 26.50272703 9.19967925 31.004919 9.31738281 35.50708008 C9.35565798 37.03857339 9.39051349 38.57015615 9.421875 40.10180664 C9.46755807 42.3038733 9.52554537 44.50532496 9.5859375 46.70703125 C9.59748871 47.39150833 9.60903992 48.07598541 9.62094116 48.78120422 C9.73273744 52.38460837 9.94394553 53.9159183 12 57 C14.66653905 57.36460453 14.66653905 57.36460453 17.625 57.1875 C18.62789063 57.16042969 19.63078125 57.13335937 20.6640625 57.10546875 C21.82035156 57.05326172 21.82035156 57.05326172 23 57 C23 59.64 23 62.28 23 65 C20.07539571 66.46230215 17.44347176 66.20908727 14.1875 66.25 C12.96417969 66.27578125 11.74085938 66.3015625 10.48046875 66.328125 C6.70639873 65.97232042 4.90918902 65.40256185 2 63 C-0.33159101 58.66454759 -0.26037119 54.43706614 -0.1953125 49.63671875 C-0.1924826 48.84473587 -0.18965271 48.05275299 -0.18673706 47.23677063 C-0.17558863 44.72019001 -0.15049422 42.20397211 -0.125 39.6875 C-0.11496329 37.97591662 -0.10583864 36.26432763 -0.09765625 34.55273438 C-0.07566681 30.36835094 -0.04117408 26.18423686 0 22 C-2.97 22 -5.94 22 -9 22 C-9 19.36 -9 16.72 -9 14 C-6.03 14 -3.06 14 0 14 C0 9.38 0 4.76 0 0 Z " fill="#0F2B5D" transform="translate(433,240)"/>
<path d="M0 0 C3.9959423 2.97282664 6.14927232 6.52271878 7.6171875 11.203125 C7.88315986 14.21237859 7.85016982 17.20372374 7.8125 20.22265625 C7.8096701 21.08122726 7.80684021 21.93979828 7.80392456 22.8243866 C7.7927682 25.55494375 7.76767209 28.2851677 7.7421875 31.015625 C7.73215182 32.87174004 7.723027 34.72786024 7.71484375 36.58398438 C7.69284376 41.12382546 7.65834531 45.66341881 7.6171875 50.203125 C4.9771875 50.203125 2.3371875 50.203125 -0.3828125 50.203125 C-0.54557292 48.18489583 -0.70833333 46.16666667 -0.87109375 44.1484375 C-1.25674286 41.80793284 -1.25674286 41.80793284 -4.3828125 40.203125 C-3.9084375 39.605 -3.4340625 39.006875 -2.9453125 38.390625 C0.13198763 34.08240482 -0.3828125 31.88827005 -0.3828125 26.203125 C-5.9928125 25.873125 -11.6028125 25.543125 -17.3828125 25.203125 C-17.3828125 24.543125 -17.3828125 23.883125 -17.3828125 23.203125 C-19.0328125 23.203125 -20.6828125 23.203125 -22.3828125 23.203125 C-22.0528125 22.213125 -21.7228125 21.223125 -21.3828125 20.203125 C-14.7828125 20.203125 -8.1828125 20.203125 -1.3828125 20.203125 C-1.6303125 18.45 -1.8778125 16.696875 -2.1328125 14.890625 C-2.27203125 13.90449219 -2.41125 12.91835938 -2.5546875 11.90234375 C-3.18040818 9.13574763 -3.18040818 9.13574763 -5.15234375 7.37109375 C-9.092093 5.30807269 -13.05412468 5.68396309 -17.3828125 6.203125 C-21.69058133 7.99802868 -22.22828131 8.89406262 -24.3828125 13.203125 C-27.3528125 13.203125 -30.3228125 13.203125 -33.3828125 13.203125 C-31.19949919 5.38916156 -29.44442634 2.5240472 -22.3203125 -1.546875 C-15.11502644 -4.39437888 -6.65688147 -3.9223119 0 0 Z " fill="#0F2A5D" transform="translate(357.3828125,255.796875)"/>
<path d="M0 0 C4.35944153 2.22084757 7.16830464 4.42076159 9 9 C9.70599788 13.70665253 9.45316426 17.0588127 7.375 21.375 C4.65750127 24.37855123 2.85562442 25.7395074 -1 27 C-7.16168018 27.09780445 -10.1292733 25.67095496 -14.65234375 21.5703125 C-17.29903317 18.48634396 -17.33909792 14.99615865 -17.28125 11.0625 C-16.67697907 6.63117985 -14.06761379 3.88967816 -10.75 1.125 C-7.10164042 -0.36751074 -3.84747819 -0.67896674 0 0 Z " fill="#FBFBFC" transform="translate(94,192)"/>
<path d="M0 0 C3.31326048 2.7610504 5.82919747 5.49045234 6.6015625 9.8671875 C6.83240119 15.42830149 5.25675193 18.53378942 1.75 22.625 C-1.31921686 25.18268072 -4.82376209 25.21306968 -8.6875 25.15625 C-13.11882015 24.55197907 -15.86032184 21.94261379 -18.625 18.625 C-20.11751074 14.97664042 -20.42896674 11.72247819 -19.75 7.875 C-15.53774883 -0.39349303 -8.66669575 -3.54546644 0 0 Z " fill="#FCFDFD" transform="translate(96.75,111.125)"/>
<path d="M0 0 C2.97 0 5.94 0 9 0 C9 17.16 9 34.32 9 52 C6.03 52 3.06 52 0 52 C0 34.84 0 17.68 0 0 Z " fill="#123769" transform="translate(696,254)"/>
<path d="M0 0 C19.14 0 38.28 0 58 0 C58 0.33 58 0.66 58 1 C39.52 1 21.04 1 2 1 C2 45.55 2 90.1 2 136 C10.58 136 19.16 136 28 136 C28 120.49 28 104.98 28 89 C28.33 89 28.66 89 29 89 C29 105.17 29 121.34 29 138 C19.43 138 9.86 138 0 138 C0 92.46 0 46.92 0 0 Z " fill="#0D1E54" transform="translate(608,69)"/>
<path d="M0 0 C0.87011719 0.00902344 1.74023438 0.01804687 2.63671875 0.02734375 C4.7579342 0.05065381 6.87900562 0.08651421 9 0.125 C9 0.455 9 0.785 9 1.125 C3.72 1.125 -1.56 1.125 -7 1.125 C-7 2.115 -7 3.105 -7 4.125 C-7.99 4.455 -8.98 4.785 -10 5.125 C-9.34 5.785 -8.68 6.445 -8 7.125 C-9.134375 7.57875 -10.26875 8.0325 -11.4375 8.5 C-15.04721692 9.69595806 -15.04721692 9.69595806 -16 12.125 C-16.36849051 15.51511269 -16.35014495 17.49140438 -14.6875 20.5 C-9.17490459 23.83319723 -2.06219881 22.47826761 4 21.125 C3.67 22.115 3.34 23.105 3 24.125 C1.02 24.125 -0.96 24.125 -3 24.125 C-3.66 25.445 -4.32 26.765 -5 28.125 C-0.00088076 27.64889341 2.97832683 26.09337781 7 23.125 C5.61497412 26.55870999 4.36875613 27.85905974 1 29.375 C-4.7826923 31.71406655 -10.25579249 32.2721066 -16.26953125 30.4296875 C-20.99551355 28.34289012 -23.85496785 25.95132234 -26 21.125 C-26.64275293 16.52229798 -26.59613115 12.5682649 -24.8125 8.25 C-17.96928068 0.22691528 -9.91801526 -0.1980556 0 0 Z " fill="#102B5E" transform="translate(629,275.875)"/>
<path d="M0 0 C1.03253906 0.01353516 1.03253906 0.01353516 2.0859375 0.02734375 C3.76577838 0.05067487 5.44543746 0.08653674 7.125 0.125 C7.61644679 4.13848214 7.9766893 7.65684988 5.89453125 11.24609375 C2.75239785 14.97786205 0.63961432 16.85251857 -4.3984375 17.3984375 C-12.05575423 17.67116385 -12.05575423 17.67116385 -16.0625 15 C-18.19820201 11.61233474 -18.62687617 10.05146445 -17.875 6.125 C-13.50904405 0.07983022 -6.93632768 -0.17475244 0 0 Z " fill="#FAFBFB" transform="translate(629.875,281.875)"/>
<path d="M0 0 C1.03253906 0.01353516 1.03253906 0.01353516 2.0859375 0.02734375 C3.76577838 0.05067487 5.44543746 0.08653674 7.125 0.125 C7.59193504 4.79435037 7.97649069 8.7352711 4.9375 12.5625 C0.04954429 17.01597076 -4.01631032 17.59790705 -10.4921875 17.43359375 C-12.875 17.125 -12.875 17.125 -16 15.5625 C-17.875 13.125 -17.875 13.125 -18.4375 9.625 C-17.875 6.125 -17.875 6.125 -16.25 3.8125 C-11.17243202 0.20475433 -6.06341957 -0.15276057 0 0 Z " fill="#FAFBFC" transform="translate(348.875,281.875)"/>
<path d="M0 0 C13.2 0 26.4 0 40 0 C40 2.97 40 5.94 40 9 C34.60653012 9.02464849 29.21309275 9.04283531 23.81958008 9.05493164 C21.98331125 9.05997231 20.14704646 9.06680477 18.31079102 9.07543945 C15.67723599 9.08751672 13.04373384 9.09323081 10.41015625 9.09765625 C9.17109276 9.10539818 9.17109276 9.10539818 7.90699768 9.11329651 C5.93763632 9.11349205 3.96838386 9.06204152 2 9 C1 8 1 8 0 0 Z " fill="#F3F4F7" transform="translate(145,199)"/>
<path d="M0 0 C0.33 0 0.66 0 1 0 C0.98839844 0.75925781 0.97679687 1.51851562 0.96484375 2.30078125 C0.95582031 3.29464844 0.94679688 4.28851563 0.9375 5.3125 C0.92589844 6.29863281 0.91429687 7.28476562 0.90234375 8.30078125 C0.87670138 11.09963849 0.87670138 11.09963849 2 14 C1.51082001 16.07369778 1.01995775 18.14701347 0.52050781 20.21826172 C-0.51853117 25.77117457 -0.48121821 31.42805109 -0.625 37.0625 C-0.68300781 38.93325195 -0.68300781 38.93325195 -0.7421875 40.84179688 C-0.83575358 43.89439017 -0.92149672 46.94698847 -1 50 C-2.65 50 -4.3 50 -6 50 C-6.33 34.16 -6.66 18.32 -7 2 C-5.02 2 -3.04 2 -1 2 C-0.67 1.34 -0.34 0.68 0 0 Z " fill="#14386A" transform="translate(526,254)"/>
<path d="M0 0 C2.97 0 5.94 0 9 0 C9 17.16 9 34.32 9 52 C6.03 52 3.06 52 0 52 C0 34.84 0 17.68 0 0 Z M2 2 C2 17.84 2 33.68 2 50 C3.65 50 5.3 50 7 50 C7 34.16 7 18.32 7 2 C5.35 2 3.7 2 2 2 Z " fill="#092058" transform="translate(696,254)"/>
<path d="M0 0 C0.391875 0.556875 0.78375 1.11375 1.1875 1.6875 C5.28991264 6.9257184 5.28991264 6.9257184 11 10 C12.72795352 10.06802967 14.45835365 10.08495645 16.1875 10.0625 C17.08855469 10.05347656 17.98960937 10.04445313 18.91796875 10.03515625 C19.94857422 10.01775391 19.94857422 10.01775391 21 10 C20.67 10.66 20.34 11.32 20 12 C18 12.66666667 16 13.33333333 14 14 C13.67 14.66 13.34 15.32 13 16 C18.77807024 16.2358396 23.51324804 15.86783046 29 14 C26.31166973 17.47901564 23.19171325 18.10668406 19 19 C11.54607755 19.60112278 4.63194133 18.33836733 -1.375 13.625 C-3.82076835 11.17923165 -5.55822053 9.13799061 -7 6 C-6.67 5.34 -6.34 4.68 -6 4 C-5.34 4.66 -4.68 5.32 -4 6 C-1.89179203 5.6814823 -1.89179203 5.6814823 0 5 C0 3.35 0 1.7 0 0 Z " fill="#0F275A" transform="translate(469,288)"/>
<path d="M0 0 C2.64 0 5.28 0 8 0 C8 2.97 8 5.94 8 9 C7.67 9 7.34 9 7 9 C7 6.69 7 4.38 7 2 C5.02 2 3.04 2 1 2 C1.0714624 2.57145752 1.1429248 3.14291504 1.21655273 3.73168945 C2.24788032 13.20999533 2.11081263 22.66808804 2.0625 32.1875 C2.05747379 33.91992058 2.05291287 35.65234257 2.04882812 37.38476562 C2.03791402 41.58987928 2.02071152 45.79492366 2 50 C3.65 50 5.3 50 7 50 C6.98952637 49.22922119 6.97905273 48.45844238 6.96826172 47.66430664 C6.92637137 44.13040502 6.9005694 40.5965559 6.875 37.0625 C6.85824219 35.85013672 6.84148438 34.63777344 6.82421875 33.38867188 C6.78732792 26.5823144 7.19939442 20.57150148 9 14 C10.31134718 17.90313437 10.03043509 21.77542704 9.87890625 25.828125 C9.85529526 26.57713074 9.83168427 27.32613647 9.80735779 28.09783936 C9.73099344 30.48209888 9.64685283 32.86601105 9.5625 35.25 C9.50925201 36.86977486 9.4565118 38.48956651 9.40429688 40.109375 C9.27541537 44.07313521 9.13956072 48.03660201 9 52 C6.03 52 3.06 52 0 52 C0 34.84 0 17.68 0 0 Z " fill="#051851" transform="translate(518,254)"/>
<path d="M0 0 C0.66 0.33 1.32 0.66 2 1 C1.21971436 1.51925049 0.43942871 2.03850098 -0.36450195 2.57348633 C-5.68411071 6.82399755 -9.08336835 10.26531947 -10.00146484 17.22021484 C-10.44015143 23.37667255 -10.32138553 29.52171906 -10.1875 35.6875 C-10.18053223 37.8535053 -10.17853441 40.0195326 -10.18164062 42.18554688 C-10.18769792 47.46144746 -10.09163638 52.72131803 -10 58 C-19.24 58 -28.48 58 -38 58 C-38 57.34 -38 56.68 -38 56 C-29.42 56 -20.84 56 -12 56 C-12.13921875 52.96296875 -12.2784375 49.9259375 -12.421875 46.796875 C-12.51576184 43.81818645 -12.58844564 40.83966953 -12.65917969 37.86035156 C-12.71912154 35.80750425 -12.80071481 33.75516047 -12.90527344 31.70410156 C-13.79871988 13.71254285 -13.79871988 13.71254285 -9.27539062 7.90039062 C-6.4557148 4.86593087 -3.38485564 2.3774127 0 0 Z " fill="#22315F" transform="translate(364,149)"/>
<path d="M0 0 C3.3726934 1.39559727 5.08045102 2.8921588 7 6 C8.31607014 9.78697928 8.12678646 13.65187211 8.09765625 17.609375 C8.0962413 18.33618469 8.09482635 19.06299438 8.09336853 19.81182861 C8.08778792 22.12459494 8.07523904 24.43726312 8.0625 26.75 C8.05748249 28.32161318 8.05292002 29.89322789 8.04882812 31.46484375 C8.03782485 35.30993343 8.02057361 39.1549501 8 43 C9.98 43 11.96 43 14 43 C14 31.45 14 19.9 14 8 C14.33 8 14.66 8 15 8 C15 20.21 15 32.42 15 45 C12.03 45 9.06 45 6 45 C5.98541748 43.90534424 5.97083496 42.81068848 5.95581055 41.68286133 C5.89771261 37.61043095 5.82048073 33.53854685 5.73754883 29.46655273 C5.70435346 27.70622645 5.67630476 25.94579512 5.65356445 24.18530273 C5.6199188 21.65042475 5.5675994 19.11650477 5.51171875 16.58203125 C5.50532883 15.79850784 5.4989389 15.01498444 5.49235535 14.2077179 C5.36940218 9.6087188 4.74391889 6.70523668 2 3 C1.34 2.01 0.68 1.02 0 0 Z " fill="#121E56" transform="translate(801,261)"/>
<path d="M0 0 C2.31 0 4.62 0 7 0 C7 0.66 7 1.32 7 2 C5.35 2 3.7 2 2 2 C2 17.84 2 33.68 2 50 C1.34 50 0.68 50 0 50 C0 33.5 0 17 0 0 Z " fill="#021954" transform="translate(696,254)"/>
<path d="M0 0 C1.9375 0.375 1.9375 0.375 4 1 C4.33 1.66 4.66 2.32 5 3 C5.804375 3.144375 6.60875 3.28875 7.4375 3.4375 C10 4 10 4 12 7 C11.67 7.66 11.34 8.32 11 9 C10.34 9 9.68 9 9 9 C8.67 9.66 8.34 10.32 8 11 C6 10 4 9 2 8 C0.29636178 7.77377919 -1.41328701 7.59111527 -3.125 7.4375 C-4.03507813 7.35371094 -4.94515625 7.26992188 -5.8828125 7.18359375 C-6.58148437 7.12300781 -7.28015625 7.06242187 -8 7 C-7.01 5.68 -6.02 4.36 -5 3 C-5.99 2.67 -6.98 2.34 -8 2 C-5.36 2 -2.72 2 0 2 C0 1.34 0 0.68 0 0 Z " fill="#15396B" transform="translate(628,253)"/>
<path d="M0 0 C2.97 0 5.94 0 9 0 C9 3.3 9 6.6 9 10 C6.03 10 3.06 10 0 10 C0 6.7 0 3.4 0 0 Z " fill="#111F51" transform="translate(696,234)"/>
<path d="M0 0 C-0.14049518 1.47968324 -0.28754826 2.95874516 -0.4375 4.4375 C-0.51871094 5.26121094 -0.59992188 6.08492188 -0.68359375 6.93359375 C-1 9 -1 9 -2 10 C-3.51928038 10.07179964 -5.04167482 10.08392007 -6.5625 10.0625 C-7.38878906 10.05347656 -8.21507812 10.04445313 -9.06640625 10.03515625 C-9.70449219 10.02355469 -10.34257812 10.01195312 -11 10 C-10.57742724 8.5164999 -10.13643678 7.03823576 -9.6875 5.5625 C-9.32205078 4.32693359 -9.32205078 4.32693359 -8.94921875 3.06640625 C-8.63597656 2.38449219 -8.32273437 1.70257813 -8 1 C-5.07175348 0.02391783 -3.04386724 -0.08226668 0 0 Z " fill="#163668" transform="translate(335,259)"/>
<path d="M0 0 C0.66 0.33 1.32 0.66 2 1 C2.40729228 3.32156597 2.74438677 5.6568787 3 8 C-1.07723734 9.95031692 -4.31692422 10.21581971 -8.8125 10.125 C-9.97394531 10.10695313 -11.13539063 10.08890625 -12.33203125 10.0703125 C-13.21246094 10.04710937 -14.09289062 10.02390625 -15 10 C-14.360625 9.896875 -13.72125 9.79375 -13.0625 9.6875 C-12.0415625 9.3471875 -12.0415625 9.3471875 -11 9 C-10.67 8.01 -10.34 7.02 -10 6 C-8 5.33333333 -6 4.66666667 -4 4 C-1.66468542 2.00064306 -1.66468542 2.00064306 0 0 Z " fill="#153769" transform="translate(493,295)"/>
<path d="M0 0 C3.12613393 2.96160056 5.04783565 5.09567131 7 9 C-4.22 9 -15.44 9 -27 9 C-27.66 7.68 -28.32 6.36 -29 5 C-28.01 5.495 -28.01 5.495 -27 6 C-24.74879258 6.08573394 -22.49500697 6.10712188 -20.2421875 6.09765625 C-19.57913605 6.0962413 -18.91608459 6.09482635 -18.23294067 6.09336853 C-16.11358137 6.08776754 -13.99432741 6.075215 -11.875 6.0625 C-10.43880361 6.05748512 -9.00260556 6.05292219 -7.56640625 6.04882812 C-4.04423655 6.03779782 -0.52212855 6.02053259 3 6 C2.505 5.38125 2.01 4.7625 1.5 4.125 C0 2 0 2 0 0 Z " fill="#0C2257" transform="translate(438,198)"/>
<path d="M0 0 C10.23 0 20.46 0 31 0 C30.67 3.96 30.34 7.92 30 12 C27.36 12 24.72 12 22 12 C22 11.67 22 11.34 22 11 C24.31 11 26.62 11 29 11 C29 8.03 29 5.06 29 2 C19.43 2.33 9.86 2.66 0 3 C0 2.01 0 1.02 0 0 Z " fill="#051A51" transform="translate(161,58)"/>
<path d="M0 0 C2.39629455 3.59444183 2.25781331 6.14861652 2.1953125 10.29296875 C2.1924826 10.99899734 2.18965271 11.70502594 2.18673706 12.43244934 C2.17555464 14.68430633 2.1504542 16.93576352 2.125 19.1875 C2.11496767 20.71548904 2.10584226 22.24348433 2.09765625 23.77148438 C2.07562172 27.51447663 2.04110567 31.25717056 2 35 C3.65 35 5.3 35 7 35 C7 35.66 7 36.32 7 37 C4.69 37 2.38 37 0 37 C0 24.79 0 12.58 0 0 Z " fill="#031A55" transform="translate(551,269)"/>
<path d="M0 0 C0.99 0 1.98 0 3 0 C3 5.94 3 11.88 3 18 C1.35 18.66 -0.3 19.32 -2 20 C-3.5625 18.3125 -3.5625 18.3125 -5 16 C-4.6875 13.25 -4.6875 13.25 -4 11 C-3.01 10.67 -2.02 10.34 -1 10 C-0.67 6.7 -0.34 3.4 0 0 Z " fill="#1D3C6C" transform="translate(466,275)"/>
<path d="M0 0 C0.763125 0.20625 1.52625 0.4125 2.3125 0.625 C1.35526125 3.40099238 0.35904399 4.58977752 -2 6.375 C-7.51937377 8.24597416 -12.91284661 7.85632884 -18.6875 7.625 C-18.6875 7.295 -18.6875 6.965 -18.6875 6.625 C-16.7075 6.295 -14.7275 5.965 -12.6875 5.625 C-13.0175 4.965 -13.3475 4.305 -13.6875 3.625 C-11.8003125 3.191875 -11.8003125 3.191875 -9.875 2.75 C-6.18791762 1.90378437 -3.69964455 -0.51622947 0 0 Z " fill="#16396A" transform="translate(351.6875,297.375)"/>
<path d="M0 0 C-1.485 1.98 -1.485 1.98 -3 4 C-1.03177114 5.96822886 2.34808709 5.66248381 5 6 C5 6.33 5 6.66 5 7 C4.43152344 7.06058594 3.86304688 7.12117188 3.27734375 7.18359375 C-0.4718261 7.59043188 -4.20354289 8.02907756 -7.9375 8.5625 C-11 9 -11 9 -13 9 C-12.66032174 5.82966958 -12.00130809 5.00117393 -9.5625 2.8125 C-6.01752233 0.30507677 -4.29984099 -0.11315371 0 0 Z " fill="#0B2154" transform="translate(572,254)"/>
<path d="M0 0 C0.66 0.33 1.32 0.66 2 1 C2.99 4.3 3.98 7.6 5 11 C-4.9 11 -14.8 11 -25 11 C-25 10.34 -25 9.68 -25 9 C-16.09 8.67 -7.18 8.34 2 8 C1.34 5.36 0.68 2.72 0 0 Z " fill="#0D2258" transform="translate(585,196)"/>
<path d="M0 0 C0.76570313 0.24556641 0.76570313 0.24556641 1.546875 0.49609375 C4.81291828 1.16698481 7.9186747 1.0933456 11.25 1.0625 C12.51328125 1.05347656 13.7765625 1.04445313 15.078125 1.03515625 C16.52445312 1.01775391 16.52445312 1.01775391 18 1 C17.67 1.66 17.34 2.32 17 3 C17.99 3.66 18.98 4.32 20 5 C14.72 5 9.44 5 4 5 C4 4.34 4 3.68 4 3 C2.35 3 0.7 3 -1 3 C-0.67 2.01 -0.34 1.02 0 0 Z " fill="#183C6E" transform="translate(336,276)"/>
<path d="M0 0 C-0.7115625 0.6496875 -0.7115625 0.6496875 -1.4375 1.3125 C-3.23686957 3.02309613 -3.23686957 3.02309613 -4 6 C-1.03 6 1.94 6 5 6 C5 6.33 5 6.66 5 7 C4.33613281 7.10957031 3.67226563 7.21914063 2.98828125 7.33203125 C-1.90879478 8.21136023 -5.90161428 8.99451714 -10 12 C-10 4 -10 4 -7.8125 1.8125 C-4.80799236 -0.12373826 -3.4826218 -0.39801392 0 0 Z " fill="#0D2052" transform="translate(795,254)"/>
<path d="M0 0 C-3 1 -3 1 -6 0 C-8.29004862 -0.09565314 -10.5829597 -0.12984575 -12.875 -0.125 C-14.69644531 -0.12886719 -14.69644531 -0.12886719 -16.5546875 -0.1328125 C-19.51119095 -0.01884298 -22.13191815 0.31296899 -25 1 C-24 -1 -24 -1 -21.76953125 -2.10546875 C-14.20953111 -4.54727415 -7.06578711 -3.19960171 0 0 Z " fill="#0F2357" transform="translate(752,256)"/>
<path d="M0 0 C-2.36292656 2.52588702 -3.66462511 3.88820837 -7 5 C-9.22818441 5.06937062 -11.45834524 5.08457084 -13.6875 5.0625 C-15.45673828 5.04896484 -15.45673828 5.04896484 -17.26171875 5.03515625 C-18.16535156 5.02355469 -19.06898438 5.01195312 -20 5 C-20 4.67 -20 4.34 -20 4 C-18.95199219 3.94392578 -18.95199219 3.94392578 -17.8828125 3.88671875 C-16.51769531 3.78810547 -16.51769531 3.78810547 -15.125 3.6875 C-14.22007812 3.62949219 -13.31515625 3.57148438 -12.3828125 3.51171875 C-9.63778399 3.2117961 -9.63778399 3.2117961 -8 0 C-4.71023192 -1.09658936 -3.28696233 -0.79953138 0 0 Z " fill="#14396C" transform="translate(634,300)"/>
<path d="M0 0 C3.3 0 6.6 0 10 0 C10 1.32 10 2.64 10 4 C6.04 4 2.08 4 -2 4 C-1.34 3.67 -0.68 3.34 0 3 C0 2.01 0 1.02 0 0 Z " fill="#153868" transform="translate(674,256)"/>
<path d="M0 0 C1.98 0 3.96 0 6 0 C6 2.31 6 4.62 6 7 C4.02 7 2.04 7 0 7 C0 4.69 0 2.38 0 0 Z " fill="#16396B" transform="translate(697,236)"/>
<path d="M0 0 C1.98 0 3.96 0 6 0 C6 4.62 6 9.24 6 14 C5.67 14 5.34 14 5 14 C5 10.37 5 6.74 5 3 C3.68 3 2.36 3 1 3 C1 6.63 1 10.26 1 14 C0.67 14 0.34 14 0 14 C0 9.38 0 4.76 0 0 Z " fill="#1A396C" transform="translate(665,240)"/>
<path d="M0 0 C0.88365234 0.00451172 1.76730469 0.00902344 2.67773438 0.01367188 C4.84768559 0.02540134 7.01760172 0.04333505 9.1875 0.0625 C9.1875 0.3925 9.1875 0.7225 9.1875 1.0625 C3.9075 1.0625 -1.3725 1.0625 -6.8125 1.0625 C-6.8125 2.0525 -6.8125 3.0425 -6.8125 4.0625 C-9.7825 3.7325 -12.7525 3.4025 -15.8125 3.0625 C-15.4825 2.4025 -15.1525 1.7425 -14.8125 1.0625 C-10.05297907 -0.45406078 -4.93986118 -0.04788829 0 0 Z " fill="#071140" transform="translate(628.8125,275.9375)"/>
<path d="M0 0 C1.32 0.33 2.64 0.66 4 1 C3.34 1 2.68 1 2 1 C2 4.3 2 7.6 2 11 C3.32 11.66 4.64 12.32 6 13 C4.33388095 13.042721 2.66617115 13.04063832 1 13 C0 12 0 12 -0.09765625 9.27734375 C-0.08605469 8.17519531 -0.07445312 7.07304687 -0.0625 5.9375 C-0.05347656 4.83277344 -0.04445312 3.72804687 -0.03515625 2.58984375 C-0.02355469 1.73519531 -0.01195312 0.88054687 0 0 Z " fill="#0A1A4C" transform="translate(53,199)"/>
<path d="M0 0 C2.31 0 4.62 0 7 0 C7 0.99 7 1.98 7 3 C5.02 3 3.04 3 1 3 C1 6.63 1 10.26 1 14 C0.67 14 0.34 14 0 14 C0 9.38 0 4.76 0 0 Z " fill="#1A386C" transform="translate(434,240)"/>
<path d="M0 0 C0.33 0.66 0.66 1.32 1 2 C0 5 0 5 -2.07421875 6.203125 C-10.72106304 9.66703273 -10.72106304 9.66703273 -16 8 C-16 7.67 -16 7.34 -16 7 C-15.26394531 6.91363281 -14.52789062 6.82726562 -13.76953125 6.73828125 C-7.49037742 5.83414946 -3.90691374 5.11940422 0 0 Z " fill="#0B194E" transform="translate(102,129)"/>
<path d="M0 0 C0 2.64 0 5.28 0 8 C-0.99 7.67 -1.98 7.34 -3 7 C-2.67 5.35 -2.34 3.7 -2 2 C-3.6396875 2.309375 -3.6396875 2.309375 -5.3125 2.625 C-9 3 -9 3 -12 1 C-10.37512529 0.83211627 -8.75009558 0.66573213 -7.125 0.5 C-6.22007812 0.4071875 -5.31515625 0.314375 -4.3828125 0.21875 C-2 0 -2 0 0 0 Z " fill="#05164E" transform="translate(687,297)"/>
<path d="M0 0 C2 2 2 2 2 6 C1.01 6.66 0.02 7.32 -1 8 C-2.19232613 10.05003955 -2.19232613 10.05003955 -3 12 C-3.12375 10.865625 -3.2475 9.73125 -3.375 8.5625 C-3.58125 7.386875 -3.7875 6.21125 -4 5 C-4.66 4.67 -5.32 4.34 -6 4 C-4.02 4 -2.04 4 0 4 C0 2.68 0 1.36 0 0 Z " fill="#173B6B" transform="translate(361,263)"/>
<path d="M0 0 C0.33 0.66 0.66 1.32 1 2 C0.67 2.99 0.34 3.98 0 5 C2.97 5.495 2.97 5.495 6 6 C6 6.66 6 7.32 6 8 C3.03 8 0.06 8 -3 8 C-1.125 1.125 -1.125 1.125 0 0 Z " fill="#2A3661" transform="translate(327,261)"/>
<path d="M0 0 C3.3 0 6.6 0 10 0 C10.33 0.99 10.66 1.98 11 3 C7.37 3 3.74 3 0 3 C0 2.01 0 1.02 0 0 Z " fill="#1A376C" transform="translate(569,253)"/>
<path d="M0 0 C0 2.64 0 5.28 0 8 C-0.66 8 -1.32 8 -2 8 C-2.33 6.35 -2.66 4.7 -3 3 C-4.65 3 -6.3 3 -8 3 C-5.22569089 1.15046059 -3.35957737 0 0 0 Z " fill="#1F2F5D" transform="translate(456,297)"/>
<path d="M0 0 C3.96 0 7.92 0 12 0 C5.6 3.2 5.6 3.2 3 4 C2.01 3.34 1.02 2.68 0 2 C0 1.34 0 0.68 0 0 Z " fill="#203A70" transform="translate(339,253)"/>
<path d="M0 0 C0.33 0 0.66 0 1 0 C0.88541307 1.43836751 0.75790884 2.87570966 0.625 4.3125 C0.55539062 5.11300781 0.48578125 5.91351563 0.4140625 6.73828125 C0 9 0 9 -2 12 C-2.05422947 10.5629191 -2.09289723 9.12524538 -2.125 7.6875 C-2.14820313 6.88699219 -2.17140625 6.08648437 -2.1953125 5.26171875 C-2 3 -2 3 0 0 Z " fill="#0B1F4F" transform="translate(324,283)"/>
<path d="M0 0 C0.33 1.32 0.66 2.64 1 4 C-0.65 4.66 -2.3 5.32 -4 6 C-4 5.01 -4 4.02 -4 3 C-2 1.3125 -2 1.3125 0 0 Z " fill="#EAECF0" transform="translate(176,243)"/>
<path d="M0 0 C0.66 0.99 1.32 1.98 2 3 C2.66 3.33 3.32 3.66 4 4 C2.68 5.65 1.36 7.3 0 9 C0 8.01 0 7.02 0 6 C-0.66 5.67 -1.32 5.34 -2 5 C-1.34 3.35 -0.68 1.7 0 0 Z " fill="#0F2457" transform="translate(528,260)"/>
<path d="M0 0 C0.33 0.66 0.66 1.32 1 2 C-0.125 5.0625 -0.125 5.0625 -2 8 C-4.6875 8.875 -4.6875 8.875 -7 9 C-6.02180976 7.68677212 -5.0424189 6.37443848 -4.0625 5.0625 C-3.51722656 4.33160156 -2.97195313 3.60070312 -2.41015625 2.84765625 C-1 1 -1 1 0 0 Z " fill="#0B194D" transform="translate(805,173)"/>
<path d="M0 0 C0.99 0 1.98 0 3 0 C6 6.625 6 6.625 6 10 C4.99421411 8.71283353 3.99553202 7.42011342 3 6.125 C2.443125 5.40570313 1.88625 4.68640625 1.3125 3.9453125 C0 2 0 2 0 0 Z " fill="#0C1A49" transform="translate(380,162)"/>
<path d="M0 0 C3.3 0.33 6.6 0.66 10 1 C6.5647952 3.29013653 5.014669 3.17842973 1 3 C0.67 2.01 0.34 1.02 0 0 Z " fill="#152E5E" transform="translate(59,340)"/>
<path d="M0 0 C2.97 0.33 5.94 0.66 9 1 C9 1.66 9 2.32 9 3 C5.85375007 3.26218749 4.38162983 3.24754367 1.6875 1.5 C1.130625 1.005 0.57375 0.51 0 0 Z " fill="#0E1F50" transform="translate(675,71)"/>
</svg>
